$MeshFormat
2.2 0 8
$EndMeshFormat
$Nodes
1155
1 0 0 0
2 0.375 0 0
3 0.5 0 0
4 1.625 0 0
5 1.75 0 0
6 2.85 0 0
7 3.15 0 0
8 4.25 0 0
9 4.375 0 0
10 5.5 0 0
11 5.625 0 0
12 6 0 0
13 6 0.5 0
14 5.625 0.5 0
15 5.5 0.5 0
16 4.375 0.5 0
17 4.25 0.5 0
18 3.15 0.5 0
19 2.85 0.5 0
20 1.75 0.5 0
21 1.625 0.5 0
22 0.5 0.5 0
23 0.375 0.5 0
24 0 0.5 0
25 0 0.4499999999997918 0
26 0 0.4 0
27 0 0.3500000000003469 0
28 0 0.3000000000006937 0
29 0 0.2500000000010297 0
30 0 0.2000000000008325 0
31 0 0.1500000000006244 0
32 0 0.1000000000004163 0
33 0 0.0500000000002081 0
34 0.1249999999995031 0 0
35 0.2499999999995202 0 0
36 0.4166666666666667 0 0
37 0.4583333333333333 0 0
38 0.6125 0 0
39 0.725 0 0
40 0.8374999999999999 0 0
41 0.95 0 0
42 1.0625 0 0
43 1.175 0 0
44 1.2875 0 0
45 1.4 0 0
46 1.5125 0 0
47 1.666666666666667 0 0
48 1.708333333333333 0 0
49 1.819190539281388 0 0
50 1.885086291238844 0 0
51 1.947844150254191 0 0
52 2.00761353959577 0 0
53 2.064536767548533 0 0
54 2.118749365611166 0 0
55 2.170380411315181 0 0
56 2.219552835795709 0 0
57 2.266383716164128 0 0
58 2.310984554752993 0 0
59 2.353461543801954 0 0
60 2.393915818931766 0 0
61 2.432443700388715 0 0
62 2.469136921085928 0 0
63 2.504082845516195 0 0
64 2.537364678327616 0 0
65 2.569061661805845 0 0
66 2.599249264943962 0 0
67 2.627999363284181 0 0
68 2.655380409270665 0 0
69 2.68145759594671 0 0
70 2.706293011813833 0 0
71 2.729945788643388 0 0
72 2.752472242675545 0 0
73 2.773926008490221 0 0
74 2.794358166444539 0 0
75 2.813817364428517 0 0
76 2.832349933941497 0 0
77 2.88750000000026 0 0
78 2.924999999999913 0 0
79 2.962499999999566 0 0
80 2.99999999999948 0 0
81 3.03749999999974 0 0
82 3.07499999999948 0 0
83 3.11249999999974 0 0
84 3.167650066460087 0 0
85 3.186182635974201 0 0
86 3.205641833958351 0 0
87 3.226073991911781 0 0
88 3.247527757724511 0 0
89 3.270054211753603 0 0
90 3.29370698857895 0 0
91 3.318542404440301 0 0
92 3.344619591109151 0 0
93 3.372000637086679 0 0
94 3.400750735416066 0 0
95 3.430938338541431 0 0
96 3.462635322004509 0 0
97 3.495917154798311 0 0
98 3.530863079208528 0 0
99 3.567556299889657 0 0
100 3.606084181313914 0 0
101 3.646538456414597 0 0
102 3.689015445430863 0 0
103 3.733616283983725 0 0
104 3.780447164312362 0 0
105 3.829619588748652 0 0
106 3.881250634403683 0 0
107 3.935463232412256 0 0
108 3.992386460305479 0 0
109 4.052155849581914 0 0
110 4.11491370852571 0 0
111 4.180809460404744 0 0
112 4.291666666666667 0 0
113 4.333333333333333 0 0
114 4.4875 0 0
115 4.6 0 0
116 4.7125 0 0
117 4.825 0 0
118 4.9375 0 0
119 5.05 0 0
120 5.1625 0 0
121 5.275 0 0
122 5.3875 0 0
123 5.541666666666667 0 0
124 5.583333333333333 0 0
125 5.75 0 0
126 5.875 0 0
127 6 0.04999999999990707 0
128 6 0.09999999999977846 0
129 6 0.1499999999996325 0
130 6 0.1999999999994866 0
131 6 0.2499999999993461 0
132 6 0.2999999999994725 0
133 6 0.3499999999996044 0
134 6 0.3999999999997362 0
135 6 0.4499999999998681 0
136 5.875 0.5 0
137 5.75 0.5 0
138 5.583333333333333 0.5 0
139 5.541666666666667 0.5 0
140 5.3875 0.5 0
141 5.275 0.5 0
142 5.1625 0.5 0
143 5.05 0.5 0
144 4.9375 0.5 0
145 4.825 0.5 0
146 4.7125 0.5 0
147 4.6 0.5 0
148 4.4875 0.5 0
149 4.333333333333333 0.5 0
150 4.291666666666667 0.5 0
151 4.18080946071842 0.5 0
152 4.114913708760677 0.5 0
153 4.052155849744957 0.5 0
154 3.992386460402915 0.5 0
155 3.935463232450265 0.5 0
156 3.881250634387736 0.5 0
157 3.829619588683819 0.5 0
158 3.780447164203382 0.5 0
159 3.733616283835047 0.5 0
160 3.689015445246261 0.5 0
161 3.646538456197373 0.5 0
162 3.606084181067629 0.5 0
163 3.567556299610729 0.5 0
164 3.530863078913588 0.5 0
165 3.495917154483374 0.5 0
166 3.462635321672003 0.5 0
167 3.43093833819382 0.5 0
168 3.400750735055746 0.5 0
169 3.372000636715566 0.5 0
170 3.344619590729118 0.5 0
171 3.318542404053107 0.5 0
172 3.293706988186014 0.5 0
173 3.270054211356487 0.5 0
174 3.247527757324356 0.5 0
175 3.226073991509704 0.5 0
176 3.205641833555407 0.5 0
177 3.186182635571448 0.5 0
178 3.167650066058486 0.5 0
179 3.11249999999974 0.5 0
180 3.075000000000087 0.5 0
181 3.037500000000434 0.5 0
182 3.00000000000052 0.5 0
183 2.96250000000026 0.5 0
184 2.92500000000052 0.5 0
185 2.88750000000026 0.5 0
186 2.832349933536393 0.5 0
187 2.813817364018409 0.5 0
188 2.79435816603001 0.5 0
189 2.773926008071925 0.5 0
190 2.752472242254102 0.5 0
191 2.72994578821945 0.5 0
192 2.70629301138804 0.5 0
193 2.681457595520086 0.5 0
194 2.655380408844057 0.5 0
195 2.62799936285873 0.5 0
196 2.599249264520881 0.5 0
197 2.569061661386345 0.5 0
198 2.537364677913335 0.5 0
199 2.504082845108791 0.5 0
200 2.469136920686961 0.5 0
201 2.432443699990364 0.5 0
202 2.3939158185555 0.5 0
203 2.353461543440222 0.5 0
204 2.310984554408227 0.5 0
205 2.266383715838427 0.5 0
206 2.219552835491561 0.5 0
207 2.170380411035664 0.5 0
208 2.118749365359555 0.5 0
209 2.064536767328335 0.5 0
210 2.007613539410793 0.5 0
211 1.947844150108605 0.5 0
212 1.88508629113691 0.5 0
213 1.81919053922789 0.5 0
214 1.708333333333333 0.5 0
215 1.666666666666667 0.5 0
216 1.512500000000364 0.5 0
217 1.400000000000728 0.5 0
218 1.287500000001093 0.5 0
219 1.175000000001457 0.5 0
220 1.062500000001821 0.5 0
221 0.9500000000017255 0.5 0
222 0.8375000000009798 0.5 0
223 0.7250000000002341 0.5 0
224 0.6124999999996359 0.5 0
225 0.4583333333333333 0.5 0
226 0.4166666666666667 0.5 0
227 0.2500000000002422 0.5 0
228 0.1250000000003504 0.5 0
229 0.375 0.04999999999990707 0
230 0.375 0.09999999999977846 0
231 0.375 0.1499999999996325 0
232 0.375 0.1999999999994866 0
233 0.375 0.2499999999993461 0
234 0.375 0.2999999999994725 0
235 0.375 0.3499999999996044 0
236 0.375 0.3999999999997362 0
237 0.375 0.4499999999998681 0
238 0.5 0.04999999999990707 0
239 0.5 0.09999999999977846 0
240 0.5 0.1499999999996325 0
241 0.5 0.1999999999994866 0
242 0.5 0.2499999999993461 0
243 0.5 0.2999999999994725 0
244 0.5 0.3499999999996044 0
245 0.5 0.3999999999997362 0
246 0.5 0.4499999999998681 0
247 1.625 0.04999999999990707 0
248 1.625 0.09999999999977846 0
249 1.625 0.1499999999996325 0
250 1.625 0.1999999999994866 0
251 1.625 0.2499999999993461 0
252 1.625 0.2999999999994725 0
253 1.625 0.3499999999996044 0
254 1.625 0.3999999999997362 0
255 1.625 0.4499999999998681 0
256 1.75 0.04999999999990707 0
257 1.75 0.09999999999977846 0
258 1.75 0.1499999999996325 0
259 1.75 0.1999999999994866 0
260 1.75 0.2499999999993461 0
261 1.75 0.2999999999994725 0
262 1.75 0.3499999999996044 0
263 1.75 0.3999999999997362 0
264 1.75 0.4499999999998681 0
265 2.85 0.04999999999990707 0
266 2.85 0.09999999999977846 0
267 2.85 0.1499999999996325 0
268 2.85 0.1999999999994866 0
269 2.85 0.2499999999993461 0
270 2.85 0.2999999999994725 0
271 2.85 0.3499999999996044 0
272 2.85 0.3999999999997362 0
273 2.85 0.4499999999998681 0
274 3.15 0.04999999999990707 0
275 3.15 0.09999999999977846 0
276 3.15 0.1499999999996325 0
277 3.15 0.1999999999994866 0
278 3.15 0.2499999999993461 0
279 3.15 0.2999999999994725 0
280 3.15 0.3499999999996044 0
281 3.15 0.3999999999997362 0
282 3.15 0.4499999999998681 0
283 4.25 0.04999999999990707 0
284 4.25 0.09999999999977846 0
285 4.25 0.1499999999996325 0
286 4.25 0.1999999999994866 0
287 4.25 0.2499999999993461 0
288 4.25 0.2999999999994725 0
289 4.25 0.3499999999996044 0
290 4.25 0.3999999999997362 0
291 4.25 0.4499999999998681 0
292 4.375 0.04999999999990707 0
293 4.375 0.09999999999977846 0
294 4.375 0.1499999999996325 0
295 4.375 0.1999999999994866 0
296 4.375 0.2499999999993461 0
297 4.375 0.2999999999994725 0
298 4.375 0.3499999999996044 0
299 4.375 0.3999999999997362 0
300 4.375 0.4499999999998681 0
301 5.5 0.04999999999990707 0
302 5.5 0.09999999999977846 0
303 5.5 0.1499999999996325 0
304 5.5 0.1999999999994866 0
305 5.5 0.2499999999993461 0
306 5.5 0.2999999999994725 0
307 5.5 0.3499999999996044 0
308 5.5 0.3999999999997362 0
309 5.5 0.4499999999998681 0
310 5.625 0.04999999999990707 0
311 5.625 0.09999999999977846 0
312 5.625 0.1499999999996325 0
313 5.625 0.1999999999994866 0
314 5.625 0.2499999999993461 0
315 5.625 0.2999999999994725 0
316 5.625 0.3499999999996044 0
317 5.625 0.3999999999997362 0
318 5.625 0.4499999999998681 0
319 0.1250000000002657 0.4499999999998173 0
320 0.25000000000017 0.4499999999998426 0
321 0.125000000000181 0.3999999999999121 0
322 0.2500000000000978 0.3999999999998242 0
323 0.1250000000000963 0.3500000000000995 0
324 0.2500000000000256 0.3499999999998519 0
325 0.1250000000000115 0.3000000000002867 0
326 0.2499999999999534 0.2999999999998796 0
327 0.1249999999999268 0.2500000000004686 0
328 0.2499999999998812 0.2499999999999072 0
329 0.1249999999998421 0.2000000000003839 0
330 0.249999999999809 0.1999999999999352 0
331 0.1249999999997573 0.1500000000002937 0
332 0.2499999999997368 0.1499999999999632 0
333 0.1249999999996726 0.1000000000002036 0
334 0.2499999999996646 0.09999999999999107 0
335 0.1249999999995879 0.05000000000010776 0
336 0.2499999999995925 0.05000000000000741 0
337 0.4166666666666667 0.4499999999998682 0
338 0.4583333333333333 0.4499999999998681 0
339 0.4166666666666667 0.3999999999997362 0
340 0.4583333333333334 0.3999999999997362 0
341 0.4166666666666667 0.3499999999996044 0
342 0.4583333333333334 0.3499999999996044 0
343 0.4166666666666666 0.2999999999994725 0
344 0.4583333333333333 0.2999999999994725 0
345 0.4166666666666667 0.2499999999993461 0
346 0.4583333333333333 0.249999999999346 0
347 0.4166666666666665 0.1999999999994866 0
348 0.4583333333333331 0.1999999999994866 0
349 0.4166666666666667 0.1499999999996325 0
350 0.4583333333333334 0.1499999999996325 0
351 0.4166666666666667 0.09999999999977846 0
352 0.4583333333333333 0.09999999999977846 0
353 0.4166666666666666 0.04999999999990708 0
354 0.4583333333333333 0.04999999999990708 0
355 0.6124999999996721 0.4499999999998681 0
356 0.7250000000002108 0.4499999999998681 0
357 0.8375000000008818 0.449999999999868 0
358 0.950000000001553 0.4499999999998682 0
359 1.062500000001639 0.4499999999998681 0
360 1.175000000001311 0.4499999999998682 0
361 1.287500000000983 0.4499999999998681 0
362 1.400000000000655 0.4499999999998681 0
363 1.512500000000328 0.4499999999998681 0
364 0.6124999999997085 0.3999999999997362 0
365 0.7250000000001873 0.3999999999997362 0
366 0.8375000000007838 0.3999999999997362 0
367 0.9500000000013802 0.3999999999997362 0
368 1.062500000001457 0.3999999999997362 0
369 1.175000000001166 0.3999999999997362 0
370 1.287500000000874 0.3999999999997362 0
371 1.400000000000583 0.3999999999997362 0
372 1.512500000000291 0.3999999999997362 0
373 0.6124999999997449 0.3499999999996044 0
374 0.7250000000001637 0.3499999999996044 0
375 0.8375000000006858 0.3499999999996044 0
376 0.950000000001208 0.3499999999996044 0
377 1.062500000001274 0.3499999999996044 0
378 1.17500000000102 0.3499999999996044 0
379 1.287500000000765 0.3499999999996044 0
380 1.40000000000051 0.3499999999996044 0
381 1.512500000000255 0.3499999999996044 0
382 0.6124999999997813 0.2999999999994725 0
383 0.7250000000001404 0.2999999999994725 0
384 0.8375000000005879 0.2999999999994725 0
385 0.9500000000010353 0.2999999999994726 0
386 1.062500000001092 0.2999999999994725 0
387 1.175000000000874 0.2999999999994725 0
388 1.287500000000656 0.2999999999994726 0
389 1.400000000000437 0.2999999999994725 0
390 1.512500000000218 0.2999999999994725 0
391 0.6124999999998177 0.2499999999993461 0
392 0.7250000000001171 0.2499999999993461 0
393 0.83750000000049 0.249999999999346 0
394 0.9500000000008626 0.249999999999346 0
395 1.06250000000091 0.249999999999346 0
396 1.175000000000728 0.249999999999346 0
397 1.287500000000546 0.249999999999346 0
398 1.400000000000364 0.249999999999346 0
399 1.512500000000182 0.249999999999346 0
400 0.6124999999998542 0.1999999999994865 0
401 0.7250000000000937 0.1999999999994865 0
402 0.8375000000003916 0.1999999999994866 0
403 0.9500000000006901 0.1999999999994865 0
404 1.062500000000728 0.1999999999994865 0
405 1.175000000000582 0.1999999999994865 0
406 1.287500000000437 0.1999999999994865 0
407 1.400000000000291 0.1999999999994865 0
408 1.512500000000146 0.1999999999994865 0
409 0.6124999999998906 0.1499999999996325 0
410 0.72500000000007 0.1499999999996325 0
411 0.8375000000002939 0.1499999999996325 0
412 0.9500000000005173 0.1499999999996325 0
413 1.062500000000546 0.1499999999996325 0
414 1.175000000000437 0.1499999999996325 0
415 1.287500000000328 0.1499999999996325 0
416 1.400000000000218 0.1499999999996325 0
417 1.512500000000109 0.1499999999996325 0
418 0.612499999999927 0.09999999999977843 0
419 0.7250000000000465 0.09999999999977847 0
420 0.837500000000196 0.09999999999977846 0
421 0.950000000000345 0.09999999999977846 0
422 1.062500000000364 0.09999999999977846 0
423 1.175000000000291 0.09999999999977846 0
424 1.287500000000219 0.09999999999977846 0
425 1.400000000000146 0.09999999999977846 0
426 1.512500000000073 0.09999999999977846 0
427 0.6124999999999634 0.04999999999990708 0
428 0.7250000000000236 0.04999999999990708 0
429 0.8375000000000978 0.04999999999990708 0
430 0.9500000000001723 0.04999999999990708 0
431 1.062500000000182 0.04999999999990708 0
432 1.175000000000145 0.04999999999990708 0
433 1.287500000000109 0.04999999999990708 0
434 1.400000000000073 0.04999999999990706 0
435 1.512500000000036 0.04999999999990706 0
436 1.666666666666667 0.4499999999998681 0
437 1.708333333333333 0.4499999999998682 0
438 1.666666666666667 0.3999999999997362 0
439 1.708333333333333 0.3999999999997362 0
440 1.666666666666667 0.3499999999996044 0
441 1.708333333333333 0.3499999999996044 0
442 1.666666666666667 0.2999999999994726 0
443 1.708333333333333 0.2999999999994725 0
444 1.666666666666667 0.2499999999993461 0
445 1.708333333333333 0.249999999999346 0
446 1.666666666666667 0.1999999999994865 0
447 1.708333333333333 0.1999999999994865 0
448 1.666666666666667 0.1499999999996325 0
449 1.708333333333333 0.1499999999996325 0
450 1.666666666666667 0.09999999999977846 0
451 1.708333333333333 0.09999999999977846 0
452 1.666666666666667 0.04999999999990706 0
453 1.708333333333333 0.04999999999990706 0
454 1.81919053923324 0.4499999999998682 0
455 1.885086291147104 0.4499999999998681 0
456 1.947844150123164 0.4499999999998681 0
457 2.00761353942929 0.4499999999998681 0
458 2.064536767350355 0.4499999999998681 0
459 2.118749365384717 0.4499999999998681 0
460 2.170380411063615 0.4499999999998682 0
461 2.219552835521976 0.4499999999998681 0
462 2.266383715870997 0.4499999999998681 0
463 2.310984554442704 0.4499999999998681 0
464 2.353461543476395 0.4499999999998682 0
465 2.393915818593127 0.4499999999998681 0
466 2.432443700030199 0.4499999999998681 0
467 2.469136920726858 0.4499999999998681 0
468 2.504082845149532 0.4499999999998681 0
469 2.537364677954764 0.4499999999998681 0
470 2.569061661428296 0.4499999999998681 0
471 2.599249264563189 0.4499999999998681 0
472 2.627999362901275 0.4499999999998682 0
473 2.655380408886718 0.4499999999998682 0
474 2.681457595562748 0.4499999999998682 0
475 2.706293011430619 0.4499999999998681 0
476 2.729945788261843 0.4499999999998681 0
477 2.752472242296246 0.4499999999998681 0
478 2.773926008113755 0.4499999999998681 0
479 2.794358166071462 0.4499999999998681 0
480 2.81381736405942 0.4499999999998681 0
481 2.832349933576903 0.4499999999998681 0
482 1.81919053923859 0.3999999999997362 0
483 1.885086291157297 0.3999999999997362 0
484 1.947844150137722 0.3999999999997362 0
485 2.007613539447788 0.3999999999997363 0
486 2.064536767372375 0.3999999999997363 0
487 2.118749365409877 0.3999999999997362 0
488 2.170380411091567 0.3999999999997362 0
489 2.21955283555239 0.3999999999997362 0
490 2.266383715903568 0.3999999999997362 0
491 2.31098455447718 0.3999999999997362 0
492 2.353461543512569 0.3999999999997362 0
493 2.393915818630754 0.3999999999997362 0
494 2.432443700070035 0.3999999999997362 0
495 2.469136920766754 0.3999999999997362 0
496 2.504082845190272 0.3999999999997362 0
497 2.537364677996191 0.3999999999997362 0
498 2.569061661470245 0.3999999999997362 0
499 2.599249264605497 0.3999999999997362 0
500 2.627999362943821 0.3999999999997362 0
501 2.655380408929378 0.3999999999997362 0
502 2.68145759560541 0.3999999999997362 0
503 2.706293011473199 0.3999999999997362 0
504 2.729945788304237 0.3999999999997362 0
505 2.752472242338391 0.3999999999997362 0
506 2.773926008155584 0.3999999999997362 0
507 2.794358166112916 0.3999999999997362 0
508 2.813817364100431 0.3999999999997362 0
509 2.832349933617413 0.3999999999997362 0
510 1.81919053924394 0.3499999999996044 0
511 1.885086291167491 0.3499999999996044 0
512 1.947844150152281 0.3499999999996043 0
513 2.007613539466286 0.3499999999996045 0
514 2.064536767394395 0.3499999999996044 0
515 2.118749365435039 0.3499999999996044 0
516 2.170380411119519 0.3499999999996045 0
517 2.219552835582805 0.3499999999996044 0
518 2.266383715936137 0.3499999999996044 0
519 2.310984554511657 0.3499999999996044 0
520 2.353461543548741 0.3499999999996044 0
521 2.393915818668381 0.3499999999996044 0
522 2.43244370010987 0.3499999999996044 0
523 2.469136920806651 0.3499999999996044 0
524 2.504082845231013 0.3499999999996044 0
525 2.537364678037619 0.3499999999996044 0
526 2.569061661512195 0.3499999999996044 0
527 2.599249264647805 0.3499999999996044 0
528 2.627999362986365 0.3499999999996044 0
529 2.65538040897204 0.3499999999996044 0
530 2.681457595648073 0.3499999999996044 0
531 2.706293011515778 0.3499999999996044 0
532 2.729945788346631 0.3499999999996044 0
533 2.752472242380535 0.3499999999996044 0
534 2.773926008197414 0.3499999999996044 0
535 2.794358166154368 0.3499999999996044 0
536 2.813817364141442 0.3499999999996044 0
537 2.832349933657924 0.3499999999996044 0
538 1.819190539249289 0.2999999999994725 0
539 1.885086291177684 0.2999999999994725 0
540 1.94784415016684 0.2999999999994725 0
541 2.007613539484783 0.2999999999994726 0
542 2.064536767416415 0.2999999999994725 0
543 2.1187493654602 0.2999999999994726 0
544 2.17038041114747 0.2999999999994725 0
545 2.21955283561322 0.2999999999994725 0
546 2.266383715968708 0.2999999999994726 0
547 2.310984554546133 0.2999999999994726 0
548 2.353461543584914 0.2999999999994726 0
549 2.393915818706006 0.2999999999994725 0
550 2.432443700149705 0.2999999999994726 0
551 2.469136920846548 0.2999999999994725 0
552 2.504082845271753 0.2999999999994725 0
553 2.537364678079047 0.2999999999994726 0
554 2.569061661554145 0.2999999999994725 0
555 2.599249264690114 0.2999999999994725 0
556 2.62799936302891 0.2999999999994725 0
557 2.655380409014701 0.2999999999994725 0
558 2.681457595690735 0.2999999999994725 0
559 2.706293011558357 0.2999999999994725 0
560 2.729945788389024 0.2999999999994725 0
561 2.752472242422679 0.2999999999994725 0
562 2.773926008239244 0.2999999999994725 0
563 2.794358166195821 0.2999999999994725 0
564 2.813817364182452 0.2999999999994725 0
565 2.832349933698434 0.2999999999994725 0
566 1.819190539254639 0.249999999999346 0
567 1.885086291187877 0.2499999999993461 0
568 1.947844150181398 0.2499999999993461 0
569 2.007613539503281 0.2499999999993461 0
570 2.064536767438434 0.2499999999993461 0
571 2.118749365485361 0.249999999999346 0
572 2.170380411175422 0.249999999999346 0
573 2.219552835643635 0.249999999999346 0
574 2.266383716001278 0.2499999999993461 0
575 2.310984554580611 0.249999999999346 0
576 2.353461543621088 0.249999999999346 0
577 2.393915818743632 0.249999999999346 0
578 2.432443700189539 0.249999999999346 0
579 2.469136920886444 0.2499999999993461 0
580 2.504082845312493 0.249999999999346 0
581 2.537364678120476 0.249999999999346 0
582 2.569061661596095 0.249999999999346 0
583 2.599249264732422 0.249999999999346 0
584 2.627999363071456 0.249999999999346 0
585 2.655380409057362 0.249999999999346 0
586 2.681457595733398 0.2499999999993461 0
587 2.706293011600937 0.249999999999346 0
588 2.729945788431419 0.249999999999346 0
589 2.752472242464823 0.2499999999993461 0
590 2.773926008281073 0.249999999999346 0
591 2.794358166237275 0.2499999999993461 0
592 2.813817364223463 0.249999999999346 0
593 2.832349933738946 0.249999999999346 0
594 1.819190539259989 0.1999999999994866 0
595 1.88508629119807 0.1999999999994866 0
596 1.947844150195957 0.1999999999994866 0
597 2.007613539521778 0.1999999999994866 0
598 2.064536767460454 0.1999999999994866 0
599 2.118749365510522 0.1999999999994865 0
600 2.170380411203374 0.1999999999994865 0
601 2.219552835674049 0.1999999999994865 0
602 2.266383716033848 0.1999999999994865 0
603 2.310984554615087 0.1999999999994865 0
604 2.353461543657262 0.1999999999994865 0
605 2.393915818781259 0.1999999999994865 0
606 2.432443700229375 0.1999999999994866 0
607 2.469136920926341 0.1999999999994865 0
608 2.504082845353234 0.1999999999994865 0
609 2.537364678161904 0.1999999999994865 0
610 2.569061661638045 0.1999999999994865 0
611 2.59924926477473 0.1999999999994865 0
612 2.627999363114001 0.1999999999994866 0
613 2.655380409100021 0.1999999999994865 0
614 2.68145759577606 0.1999999999994865 0
615 2.706293011643516 0.1999999999994865 0
616 2.729945788473812 0.1999999999994865 0
617 2.752472242506967 0.1999999999994865 0
618 2.773926008322903 0.1999999999994865 0
619 2.794358166278728 0.1999999999994865 0
620 2.813817364264474 0.1999999999994865 0
621 2.832349933779455 0.1999999999994865 0
622 1.819190539265339 0.1499999999996325 0
623 1.885086291208264 0.1499999999996325 0
624 1.947844150210515 0.1499999999996325 0
625 2.007613539540277 0.1499999999996325 0
626 2.064536767482474 0.1499999999996325 0
627 2.118749365535682 0.1499999999996325 0
628 2.170380411231326 0.1499999999996325 0
629 2.219552835704464 0.1499999999996325 0
630 2.266383716066418 0.1499999999996325 0
631 2.310984554649563 0.1499999999996325 0
632 2.353461543693435 0.1499999999996325 0
633 2.393915818818886 0.1499999999996325 0
634 2.432443700269209 0.1499999999996325 0
635 2.469136920966238 0.1499999999996325 0
636 2.504082845393974 0.1499999999996325 0
637 2.537364678203332 0.1499999999996325 0
638 2.569061661679995 0.1499999999996325 0
639 2.599249264817038 0.1499999999996325 0
640 2.627999363156546 0.1499999999996325 0
641 2.655380409142682 0.1499999999996325 0
642 2.681457595818722 0.1499999999996325 0
643 2.706293011686095 0.1499999999996325 0
644 2.729945788516206 0.1499999999996325 0
645 2.752472242549112 0.1499999999996325 0
646 2.773926008364732 0.1499999999996325 0
647 2.794358166320181 0.1499999999996325 0
648 2.813817364305485 0.1499999999996325 0
649 2.832349933819966 0.1499999999996325 0
650 1.819190539270689 0.09999999999977845 0
651 1.885086291218458 0.09999999999977849 0
652 1.947844150225074 0.09999999999977846 0
653 2.007613539558775 0.09999999999977849 0
654 2.064536767504493 0.09999999999977846 0
655 2.118749365560844 0.09999999999977849 0
656 2.170380411259277 0.09999999999977846 0
657 2.219552835734879 0.09999999999977843 0
658 2.266383716098988 0.09999999999977846 0
659 2.31098455468404 0.09999999999977846 0
660 2.353461543729607 0.09999999999977846 0
661 2.393915818856513 0.09999999999977846 0
662 2.432443700309045 0.09999999999977846 0
663 2.469136921006134 0.09999999999977846 0
664 2.504082845434715 0.09999999999977843 0
665 2.53736467824476 0.09999999999977846 0
666 2.569061661721945 0.09999999999977849 0
667 2.599249264859345 0.09999999999977843 0
668 2.62799936319909 0.09999999999977846 0
669 2.655380409185343 0.09999999999977846 0
670 2.681457595861385 0.09999999999977846 0
671 2.706293011728675 0.09999999999977846 0
672 2.7299457885586 0.09999999999977846 0
673 2.752472242591257 0.09999999999977846 0
674 2.773926008406562 0.09999999999977846 0
675 2.794358166361634 0.09999999999977843 0
676 2.813817364346496 0.09999999999977846 0
677 2.832349933860477 0.09999999999977846 0
678 1.819190539276039 0.04999999999990708 0
679 1.885086291228651 0.04999999999990706 0
680 1.947844150239633 0.04999999999990706 0
681 2.007613539577272 0.04999999999990708 0
682 2.064536767526513 0.04999999999990708 0
683 2.118749365586005 0.04999999999990706 0
684 2.17038041128723 0.04999999999990708 0
685 2.219552835765294 0.04999999999990706 0
686 2.266383716131558 0.04999999999990706 0
687 2.310984554718516 0.04999999999990706 0
688 2.353461543765781 0.04999999999990706 0
689 2.39391581889414 0.04999999999990706 0
690 2.43244370034888 0.04999999999990708 0
691 2.469136921046031 0.04999999999990706 0
692 2.504082845475454 0.04999999999990706 0
693 2.537364678286188 0.04999999999990706 0
694 2.569061661763894 0.04999999999990706 0
695 2.599249264901654 0.04999999999990706 0
696 2.627999363241636 0.04999999999990706 0
697 2.655380409228004 0.04999999999990706 0
698 2.681457595904047 0.04999999999990706 0
699 2.706293011771254 0.04999999999990706 0
700 2.729945788600994 0.04999999999990706 0
701 2.752472242633401 0.04999999999990706 0
702 2.773926008448392 0.04999999999990706 0
703 2.794358166403086 0.04999999999990706 0
704 2.813817364387507 0.04999999999990706 0
705 2.832349933900987 0.04999999999990706 0
706 2.88750000000026 0.4499999999998681 0
707 2.92500000000046 0.449999999999868 0
708 2.96250000000019 0.4499999999998681 0
709 3.000000000000417 0.4499999999998681 0
710 3.037500000000365 0.4499999999998681 0
711 3.075000000000026 0.4499999999998681 0
712 3.11249999999974 0.449999999999868 0
713 2.88750000000026 0.3999999999997361 0
714 2.925000000000399 0.3999999999997362 0
715 2.962500000000121 0.3999999999997362 0
716 3.000000000000312 0.3999999999997362 0
717 3.037500000000295 0.3999999999997362 0
718 3.074999999999966 0.3999999999997362 0
719 3.11249999999974 0.3999999999997362 0
720 2.887500000000261 0.3499999999996044 0
721 2.925000000000338 0.3499999999996044 0
722 2.962500000000051 0.3499999999996044 0
723 3.000000000000208 0.3499999999996044 0
724 3.037500000000225 0.3499999999996044 0
725 3.074999999999905 0.3499999999996044 0
726 3.11249999999974 0.3499999999996044 0
727 2.88750000000026 0.2999999999994725 0
728 2.925000000000276 0.2999999999994726 0
729 2.962499999999982 0.2999999999994726 0
730 3.000000000000104 0.2999999999994725 0
731 3.037500000000156 0.2999999999994725 0
732 3.074999999999844 0.2999999999994726 0
733 3.11249999999974 0.2999999999994725 0
734 2.88750000000026 0.249999999999346 0
735 2.925000000000216 0.249999999999346 0
736 2.962499999999913 0.249999999999346 0
737 3 0.2499999999993461 0
738 3.037500000000087 0.249999999999346 0
739 3.074999999999783 0.249999999999346 0
740 3.11249999999974 0.249999999999346 0
741 2.88750000000026 0.1999999999994865 0
742 2.925000000000156 0.1999999999994865 0
743 2.962499999999844 0.1999999999994866 0
744 2.999999999999896 0.1999999999994866 0
745 3.037500000000017 0.1999999999994865 0
746 3.074999999999722 0.1999999999994865 0
747 3.11249999999974 0.1999999999994865 0
748 2.88750000000026 0.1499999999996325 0
749 2.925000000000095 0.1499999999996325 0
750 2.962499999999775 0.1499999999996325 0
751 2.999999999999792 0.1499999999996325 0
752 3.037499999999948 0.1499999999996325 0
753 3.074999999999662 0.1499999999996325 0
754 3.112499999999739 0.1499999999996325 0
755 2.88750000000026 0.09999999999977846 0
756 2.925000000000035 0.09999999999977846 0
757 2.962499999999705 0.09999999999977846 0
758 2.999999999999688 0.09999999999977849 0
759 3.037499999999879 0.09999999999977843 0
760 3.074999999999601 0.09999999999977846 0
761 3.11249999999974 0.09999999999977846 0
762 2.88750000000026 0.04999999999990707 0
763 2.924999999999973 0.04999999999990708 0
764 2.962499999999636 0.04999999999990706 0
765 2.999999999999585 0.04999999999990706 0
766 3.037499999999809 0.04999999999990706 0
767 3.074999999999541 0.04999999999990706 0
768 3.11249999999974 0.04999999999990706 0
769 3.167650066098647 0.4499999999998681 0
770 3.186182635611724 0.4499999999998681 0
771 3.205641833595702 0.4499999999998681 0
772 3.226073991549911 0.4499999999998681 0
773 3.247527757364371 0.4499999999998682 0
774 3.270054211396199 0.449999999999868 0
775 3.293706988225308 0.4499999999998681 0
776 3.318542404091827 0.4499999999998682 0
777 3.34461959076712 0.4499999999998681 0
778 3.372000636752678 0.4499999999998682 0
779 3.400750735091778 0.4499999999998681 0
780 3.430938338228582 0.4499999999998681 0
781 3.462635321705253 0.4499999999998682 0
782 3.495917154514867 0.4499999999998681 0
783 3.530863078943081 0.4499999999998682 0
784 3.567556299638622 0.4499999999998682 0
785 3.606084181092257 0.449999999999868 0
786 3.646538456219095 0.4499999999998682 0
787 3.689015445264721 0.4499999999998681 0
788 3.733616283849916 0.4499999999998681 0
789 3.780447164214279 0.4499999999998682 0
790 3.829619588690301 0.4499999999998682 0
791 3.881250634389331 0.4499999999998681 0
792 3.935463232446464 0.4499999999998682 0
793 3.992386460393172 0.4499999999998681 0
794 4.052155849728653 0.4499999999998682 0
795 4.114913708737181 0.4499999999998682 0
796 4.180809460687053 0.4499999999998681 0
797 3.167650066138807 0.3999999999997362 0
798 3.186182635652 0.3999999999997362 0
799 3.205641833635996 0.3999999999997362 0
800 3.226073991590119 0.3999999999997362 0
801 3.247527757404387 0.3999999999997362 0
802 3.270054211435911 0.3999999999997362 0
803 3.293706988264601 0.3999999999997362 0
804 3.318542404130547 0.3999999999997362 0
805 3.344619590805124 0.3999999999997362 0
806 3.372000636789789 0.3999999999997362 0
807 3.40075073512781 0.3999999999997362 0
808 3.430938338263342 0.3999999999997362 0
809 3.462635321738504 0.3999999999997362 0
810 3.495917154546361 0.3999999999997362 0
811 3.530863078972576 0.3999999999997362 0
812 3.567556299666514 0.3999999999997362 0
813 3.606084181116886 0.3999999999997362 0
814 3.646538456240818 0.3999999999997362 0
815 3.689015445283181 0.3999999999997362 0
816 3.733616283864782 0.3999999999997362 0
817 3.780447164225178 0.3999999999997362 0
818 3.829619588696785 0.3999999999997362 0
819 3.881250634390925 0.3999999999997362 0
820 3.935463232442663 0.3999999999997362 0
821 3.992386460383427 0.3999999999997362 0
822 4.052155849712349 0.3999999999997362 0
823 4.114913708713683 0.3999999999997362 0
824 4.180809460655686 0.3999999999997362 0
825 3.167650066178967 0.3499999999996044 0
826 3.186182635692275 0.3499999999996044 0
827 3.205641833676291 0.3499999999996044 0
828 3.226073991630328 0.3499999999996044 0
829 3.247527757444402 0.3499999999996044 0
830 3.270054211475621 0.3499999999996044 0
831 3.293706988303895 0.3499999999996043 0
832 3.318542404169266 0.3499999999996044 0
833 3.344619590843128 0.3499999999996045 0
834 3.3720006368269 0.3499999999996044 0
835 3.400750735163842 0.3499999999996045 0
836 3.430938338298103 0.3499999999996044 0
837 3.462635321771754 0.3499999999996044 0
838 3.495917154577854 0.3499999999996044 0
839 3.53086307900207 0.3499999999996044 0
840 3.567556299694407 0.3499999999996044 0
841 3.606084181141514 0.3499999999996044 0
842 3.64653845626254 0.3499999999996044 0
843 3.689015445301641 0.3499999999996044 0
844 3.73361628387965 0.3499999999996044 0
845 3.780447164236076 0.3499999999996044 0
846 3.829619588703268 0.3499999999996044 0
847 3.88125063439252 0.3499999999996044 0
848 3.935463232438862 0.3499999999996044 0
849 3.992386460373684 0.3499999999996044 0
850 4.052155849696044 0.3499999999996044 0
851 4.114913708690187 0.3499999999996044 0
852 4.180809460624317 0.3499999999996044 0
853 3.167650066219126 0.2999999999994725 0
854 3.18618263573255 0.2999999999994726 0
855 3.205641833716585 0.2999999999994726 0
856 3.226073991670535 0.2999999999994725 0
857 3.247527757484418 0.2999999999994725 0
858 3.270054211515333 0.2999999999994725 0
859 3.293706988343188 0.2999999999994725 0
860 3.318542404207985 0.2999999999994724 0
861 3.344619590881131 0.2999999999994725 0
862 3.372000636864011 0.2999999999994726 0
863 3.400750735199873 0.2999999999994726 0
864 3.430938338332865 0.2999999999994725 0
865 3.462635321805006 0.2999999999994725 0
866 3.495917154609348 0.2999999999994726 0
867 3.530863079031563 0.2999999999994725 0
868 3.5675562997223 0.2999999999994725 0
869 3.606084181166143 0.2999999999994726 0
870 3.646538456284263 0.2999999999994725 0
871 3.689015445320101 0.2999999999994725 0
872 3.733616283894519 0.2999999999994725 0
873 3.780447164246974 0.2999999999994726 0
874 3.829619588709753 0.2999999999994725 0
875 3.881250634394115 0.2999999999994725 0
876 3.935463232435061 0.2999999999994726 0
877 3.992386460363941 0.2999999999994725 0
878 4.052155849679739 0.2999999999994725 0
879 4.114913708666689 0.2999999999994725 0
880 4.180809460592949 0.2999999999994725 0
881 3.167650066259287 0.2499999999993461 0
882 3.186182635772825 0.2499999999993461 0
883 3.205641833756879 0.249999999999346 0
884 3.226073991710742 0.249999999999346 0
885 3.247527757524433 0.249999999999346 0
886 3.270054211555046 0.2499999999993461 0
887 3.293706988382482 0.2499999999993461 0
888 3.318542404246705 0.249999999999346 0
889 3.344619590919134 0.2499999999993461 0
890 3.372000636901122 0.2499999999993461 0
891 3.400750735235905 0.249999999999346 0
892 3.430938338367627 0.249999999999346 0
893 3.462635321838256 0.249999999999346 0
894 3.495917154640841 0.249999999999346 0
895 3.530863079061057 0.249999999999346 0
896 3.567556299750194 0.249999999999346 0
897 3.606084181190772 0.249999999999346 0
898 3.646538456305985 0.249999999999346 0
899 3.689015445338562 0.249999999999346 0
900 3.733616283909386 0.249999999999346 0
901 3.780447164257872 0.249999999999346 0
902 3.829619588716236 0.249999999999346 0
903 3.881250634395708 0.249999999999346 0
904 3.93546323243126 0.249999999999346 0
905 3.992386460354198 0.2499999999993461 0
906 4.052155849663436 0.2499999999993461 0
907 4.114913708643194 0.249999999999346 0
908 4.180809460561582 0.2499999999993461 0
909 3.167650066299447 0.1999999999994866 0
910 3.1861826358131 0.1999999999994865 0
911 3.205641833797174 0.1999999999994865 0
912 3.226073991750951 0.1999999999994865 0
913 3.247527757564449 0.1999999999994866 0
914 3.270054211594756 0.1999999999994865 0
915 3.293706988421776 0.1999999999994866 0
916 3.318542404285425 0.1999999999994866 0
917 3.344619590957138 0.1999999999994866 0
918 3.372000636938234 0.1999999999994866 0
919 3.400750735271938 0.1999999999994865 0
920 3.430938338402386 0.1999999999994865 0
921 3.462635321871507 0.1999999999994866 0
922 3.495917154672336 0.1999999999994866 0
923 3.530863079090552 0.1999999999994865 0
924 3.567556299778086 0.1999999999994865 0
925 3.606084181215399 0.1999999999994866 0
926 3.646538456327708 0.1999999999994866 0
927 3.689015445357021 0.1999999999994865 0
928 3.733616283924254 0.1999999999994865 0
929 3.780447164268769 0.1999999999994865 0
930 3.829619588722718 0.1999999999994866 0
931 3.881250634397304 0.1999999999994865 0
932 3.93546323242746 0.1999999999994865 0
933 3.992386460344454 0.1999999999994865 0
934 4.052155849647132 0.1999999999994865 0
935 4.114913708619696 0.1999999999994866 0
936 4.180809460530215 0.1999999999994865 0
937 3.167650066339608 0.1499999999996325 0
938 3.186182635853375 0.1499999999996325 0
939 3.205641833837467 0.1499999999996325 0
940 3.226073991791158 0.1499999999996325 0
941 3.247527757604464 0.1499999999996325 0
942 3.270054211634468 0.1499999999996325 0
943 3.293706988461069 0.1499999999996325 0
944 3.318542404324144 0.1499999999996325 0
945 3.344619590995141 0.1499999999996325 0
946 3.372000636975345 0.1499999999996325 0
947 3.400750735307969 0.1499999999996325 0
948 3.430938338437148 0.1499999999996325 0
949 3.462635321904758 0.1499999999996325 0
950 3.495917154703829 0.1499999999996325 0
951 3.530863079120047 0.1499999999996325 0
952 3.567556299805979 0.1499999999996325 0
953 3.606084181240029 0.1499999999996325 0
954 3.64653845634943 0.1499999999996325 0
955 3.689015445375483 0.1499999999996325 0
956 3.733616283939121 0.1499999999996325 0
957 3.780447164279669 0.1499999999996325 0
958 3.829619588729202 0.1499999999996325 0
959 3.881250634398898 0.1499999999996325 0
960 3.935463232423658 0.1499999999996325 0
961 3.992386460334709 0.1499999999996325 0
962 4.052155849630827 0.1499999999996325 0
963 4.1149137085962 0.1499999999996325 0
964 4.180809460498846 0.1499999999996325 0
965 3.167650066379768 0.09999999999977849 0
966 3.186182635893652 0.09999999999977846 0
967 3.205641833877762 0.09999999999977843 0
968 3.226073991831366 0.09999999999977846 0
969 3.24752775764448 0.09999999999977846 0
970 3.27005421167418 0.09999999999977843 0
971 3.293706988500363 0.09999999999977846 0
972 3.318542404362864 0.09999999999977846 0
973 3.344619591033144 0.09999999999977843 0
974 3.372000637012456 0.09999999999977846 0
975 3.400750735344001 0.09999999999977845 0
976 3.430938338471909 0.09999999999977843 0
977 3.462635321938009 0.09999999999977846 0
978 3.495917154735323 0.09999999999977846 0
979 3.53086307914954 0.09999999999977846 0
980 3.567556299833871 0.09999999999977843 0
981 3.606084181264658 0.09999999999977846 0
982 3.646538456371152 0.09999999999977846 0
983 3.689015445393943 0.09999999999977843 0
984 3.733616283953989 0.09999999999977846 0
985 3.780447164290567 0.09999999999977846 0
986 3.829619588735686 0.09999999999977846 0
987 3.881250634400494 0.09999999999977843 0
988 3.935463232419858 0.09999999999977846 0
989 3.992386460324965 0.09999999999977846 0
990 4.052155849614522 0.09999999999977846 0
991 4.114913708572702 0.09999999999977846 0
992 4.180809460467479 0.09999999999977846 0
993 3.167650066419928 0.04999999999990706 0
994 3.186182635933926 0.04999999999990706 0
995 3.205641833918057 0.04999999999990707 0
996 3.226073991871573 0.04999999999990708 0
997 3.247527757684495 0.04999999999990706 0
998 3.270054211713891 0.04999999999990708 0
999 3.293706988539655 0.04999999999990708 0
1000 3.318542404401582 0.04999999999990708 0
1001 3.344619591071146 0.04999999999990706 0
1002 3.372000637049567 0.04999999999990706 0
1003 3.400750735380034 0.04999999999990706 0
1004 3.430938338506671 0.04999999999990706 0
1005 3.462635321971259 0.04999999999990706 0
1006 3.495917154766816 0.04999999999990706 0
1007 3.530863079179034 0.04999999999990706 0
1008 3.567556299861765 0.04999999999990706 0
1009 3.606084181289285 0.04999999999990706 0
1010 3.646538456392875 0.04999999999990706 0
1011 3.689015445412402 0.04999999999990706 0
1012 3.733616283968856 0.04999999999990706 0
1013 3.780447164301464 0.04999999999990706 0
1014 3.829619588742169 0.04999999999990706 0
1015 3.881250634402088 0.04999999999990706 0
1016 3.935463232416057 0.04999999999990706 0
1017 3.992386460315223 0.04999999999990706 0
1018 4.052155849598218 0.04999999999990706 0
1019 4.114913708549206 0.04999999999990706 0
1020 4.180809460436112 0.04999999999990706 0
1021 4.291666666666667 0.449999999999868 0
1022 4.333333333333333 0.4499999999998681 0
1023 4.291666666666667 0.3999999999997362 0
1024 4.333333333333333 0.3999999999997362 0
1025 4.291666666666667 0.3499999999996044 0
1026 4.333333333333334 0.3499999999996044 0
1027 4.291666666666667 0.2999999999994725 0
1028 4.333333333333331 0.2999999999994725 0
1029 4.291666666666667 0.2499999999993461 0
1030 4.333333333333333 0.249999999999346 0
1031 4.291666666666667 0.1999999999994866 0
1032 4.333333333333333 0.1999999999994866 0
1033 4.291666666666667 0.1499999999996325 0
1034 4.333333333333333 0.1499999999996325 0
1035 4.291666666666667 0.09999999999977846 0
1036 4.333333333333333 0.09999999999977846 0
1037 4.291666666666667 0.04999999999990708 0
1038 4.333333333333333 0.04999999999990708 0
1039 4.4875 0.4499999999998682 0
1040 4.6 0.449999999999868 0
1041 4.7125 0.4499999999998681 0
1042 4.825 0.4499999999998681 0
1043 4.9375 0.4499999999998681 0
1044 5.05 0.449999999999868 0
1045 5.1625 0.4499999999998681 0
1046 5.275 0.4499999999998681 0
1047 5.387500000000001 0.4499999999998681 0
1048 4.4875 0.3999999999997362 0
1049 4.6 0.3999999999997362 0
1050 4.7125 0.3999999999997362 0
1051 4.825 0.3999999999997362 0
1052 4.9375 0.3999999999997362 0
1053 5.05 0.3999999999997362 0
1054 5.1625 0.3999999999997362 0
1055 5.275 0.3999999999997362 0
1056 5.387500000000001 0.3999999999997362 0
1057 4.487499999999999 0.3499999999996044 0
1058 4.6 0.3499999999996044 0
1059 4.712499999999999 0.3499999999996044 0
1060 4.825 0.3499999999996044 0
1061 4.9375 0.3499999999996044 0
1062 5.05 0.3499999999996044 0
1063 5.1625 0.3499999999996044 0
1064 5.275 0.3499999999996044 0
1065 5.3875 0.3499999999996044 0
1066 4.4875 0.2999999999994725 0
1067 4.600000000000001 0.2999999999994725 0
1068 4.7125 0.2999999999994726 0
1069 4.825000000000001 0.2999999999994725 0
1070 4.9375 0.2999999999994725 0
1071 5.05 0.2999999999994725 0
1072 5.162500000000001 0.2999999999994725 0
1073 5.275 0.2999999999994725 0
1074 5.3875 0.2999999999994725 0
1075 4.4875 0.2499999999993461 0
1076 4.600000000000001 0.2499999999993461 0
1077 4.7125 0.249999999999346 0
1078 4.825 0.2499999999993461 0
1079 4.9375 0.2499999999993461 0
1080 5.050000000000001 0.249999999999346 0
1081 5.1625 0.249999999999346 0
1082 5.275 0.249999999999346 0
1083 5.3875 0.249999999999346 0
1084 4.4875 0.1999999999994865 0
1085 4.6 0.1999999999994865 0
1086 4.712499999999999 0.1999999999994866 0
1087 4.825 0.1999999999994865 0
1088 4.9375 0.1999999999994866 0
1089 5.05 0.1999999999994865 0
1090 5.1625 0.1999999999994865 0
1091 5.275 0.1999999999994865 0
1092 5.3875 0.1999999999994865 0
1093 4.487500000000001 0.1499999999996325 0
1094 4.6 0.1499999999996325 0
1095 4.7125 0.1499999999996325 0
1096 4.825000000000001 0.1499999999996325 0
1097 4.9375 0.1499999999996325 0
1098 5.049999999999999 0.1499999999996325 0
1099 5.1625 0.1499999999996325 0
1100 5.275 0.1499999999996325 0
1101 5.3875 0.1499999999996325 0
1102 4.4875 0.09999999999977846 0
1103 4.600000000000001 0.09999999999977847 0
1104 4.712499999999999 0.09999999999977847 0
1105 4.825 0.09999999999977843 0
1106 4.9375 0.09999999999977849 0
1107 5.05 0.09999999999977843 0
1108 5.162499999999999 0.09999999999977849 0
1109 5.275 0.09999999999977846 0
1110 5.387500000000003 0.09999999999977846 0
1111 4.487500000000001 0.04999999999990706 0
1112 4.6 0.04999999999990708 0
1113 4.7125 0.04999999999990708 0
1114 4.825 0.04999999999990708 0
1115 4.9375 0.04999999999990706 0
1116 5.05 0.04999999999990708 0
1117 5.1625 0.04999999999990706 0
1118 5.275 0.04999999999990706 0
1119 5.387500000000001 0.04999999999990706 0
1120 5.541666666666669 0.449999999999868 0
1121 5.583333333333332 0.4499999999998681 0
1122 5.541666666666669 0.3999999999997362 0
1123 5.583333333333333 0.3999999999997362 0
1124 5.541666666666669 0.3499999999996044 0
1125 5.583333333333335 0.3499999999996044 0
1126 5.541666666666665 0.2999999999994725 0
1127 5.583333333333334 0.2999999999994725 0
1128 5.541666666666669 0.2499999999993461 0
1129 5.583333333333333 0.249999999999346 0
1130 5.541666666666669 0.1999999999994866 0
1131 5.583333333333333 0.1999999999994866 0
1132 5.541666666666669 0.1499999999996325 0
1133 5.583333333333334 0.1499999999996325 0
1134 5.541666666666668 0.09999999999977846 0
1135 5.583333333333333 0.09999999999977846 0
1136 5.541666666666669 0.04999999999990708 0
1137 5.583333333333333 0.04999999999990708 0
1138 5.749999999999999 0.4499999999998681 0
1139 5.875 0.4499999999998682 0
1140 5.75 0.3999999999997362 0
1141 5.875 0.3999999999997362 0
1142 5.750000000000001 0.3499999999996044 0
1143 5.875 0.3499999999996044 0
1144 5.75 0.2999999999994725 0
1145 5.875 0.2999999999994725 0
1146 5.749999999999999 0.249999999999346 0
1147 5.875 0.2499999999993461 0
1148 5.749999999999999 0.1999999999994866 0
1149 5.875 0.1999999999994865 0
1150 5.75 0.1499999999996325 0
1151 5.875 0.1499999999996325 0
1152 5.749999999999999 0.09999999999977849 0
1153 5.875 0.09999999999977846 0
1154 5.75 0.04999999999990706 0
1155 5.875 0.04999999999990706 0
$EndNodes
$Elements
1052
1 1 2 1 3 2 36
2 1 2 1 3 36 37
3 1 2 1 3 37 3
4 1 2 2 11 10 123
5 1 2 2 11 123 124
6 1 2 2 11 124 11
7 1 2 3 17 16 149
8 1 2 3 17 149 150
9 1 2 3 17 150 17
10 1 2 4 21 20 214
11 1 2 4 21 214 215
12 1 2 4 21 215 21
13 3 2 1 1 24 25 319 228
14 3 2 1 1 228 319 320 227
15 3 2 1 1 227 320 237 23
16 3 2 1 1 25 26 321 319
17 3 2 1 1 319 321 322 320
18 3 2 1 1 320 322 236 237
19 3 2 1 1 26 27 323 321
20 3 2 1 1 321 323 324 322
21 3 2 1 1 322 324 235 236
22 3 2 1 1 27 28 325 323
23 3 2 1 1 323 325 326 324
24 3 2 1 1 324 326 234 235
25 3 2 1 1 28 29 327 325
26 3 2 1 1 325 327 328 326
27 3 2 1 1 326 328 233 234
28 3 2 1 1 29 30 329 327
29 3 2 1 1 327 329 330 328
30 3 2 1 1 328 330 232 233
31 3 2 1 1 30 31 331 329
32 3 2 1 1 329 331 332 330
33 3 2 1 1 330 332 231 232
34 3 2 1 1 31 32 333 331
35 3 2 1 1 331 333 334 332
36 3 2 1 1 332 334 230 231
37 3 2 1 1 32 33 335 333
38 3 2 1 1 333 335 336 334
39 3 2 1 1 334 336 229 230
40 3 2 1 1 33 1 34 335
41 3 2 1 1 335 34 35 336
42 3 2 1 1 336 35 2 229
43 3 2 1 2 23 237 337 226
44 3 2 1 2 226 337 338 225
45 3 2 1 2 225 338 246 22
46 3 2 1 2 237 236 339 337
47 3 2 1 2 337 339 340 338
48 3 2 1 2 338 340 245 246
49 3 2 1 2 236 235 341 339
50 3 2 1 2 339 341 342 340
51 3 2 1 2 340 342 244 245
52 3 2 1 2 235 234 343 341
53 3 2 1 2 341 343 344 342
54 3 2 1 2 342 344 243 244
55 3 2 1 2 234 233 345 343
56 3 2 1 2 343 345 346 344
57 3 2 1 2 344 346 242 243
58 3 2 1 2 233 232 347 345
59 3 2 1 2 345 347 348 346
60 3 2 1 2 346 348 241 242
61 3 2 1 2 232 231 349 347
62 3 2 1 2 347 349 350 348
63 3 2 1 2 348 350 240 241
64 3 2 1 2 231 230 351 349
65 3 2 1 2 349 351 352 350
66 3 2 1 2 350 352 239 240
67 3 2 1 2 230 229 353 351
68 3 2 1 2 351 353 354 352
69 3 2 1 2 352 354 238 239
70 3 2 1 2 229 2 36 353
71 3 2 1 2 353 36 37 354
72 3 2 1 2 354 37 3 238
73 3 2 1 3 22 246 355 224
74 3 2 1 3 224 355 356 223
75 3 2 1 3 223 356 357 222
76 3 2 1 3 222 357 358 221
77 3 2 1 3 221 358 359 220
78 3 2 1 3 220 359 360 219
79 3 2 1 3 219 360 361 218
80 3 2 1 3 218 361 362 217
81 3 2 1 3 217 362 363 216
82 3 2 1 3 216 363 255 21
83 3 2 1 3 246 245 364 355
84 3 2 1 3 355 364 365 356
85 3 2 1 3 356 365 366 357
86 3 2 1 3 357 366 367 358
87 3 2 1 3 358 367 368 359
88 3 2 1 3 359 368 369 360
89 3 2 1 3 360 369 370 361
90 3 2 1 3 361 370 371 362
91 3 2 1 3 362 371 372 363
92 3 2 1 3 363 372 254 255
93 3 2 1 3 245 244 373 364
94 3 2 1 3 364 373 374 365
95 3 2 1 3 365 374 375 366
96 3 2 1 3 366 375 376 367
97 3 2 1 3 367 376 377 368
98 3 2 1 3 368 377 378 369
99 3 2 1 3 369 378 379 370
100 3 2 1 3 370 379 380 371
101 3 2 1 3 371 380 381 372
102 3 2 1 3 372 381 253 254
103 3 2 1 3 244 243 382 373
104 3 2 1 3 373 382 383 374
105 3 2 1 3 374 383 384 375
106 3 2 1 3 375 384 385 376
107 3 2 1 3 376 385 386 377
108 3 2 1 3 377 386 387 378
109 3 2 1 3 378 387 388 379
110 3 2 1 3 379 388 389 380
111 3 2 1 3 380 389 390 381
112 3 2 1 3 381 390 252 253
113 3 2 1 3 243 242 391 382
114 3 2 1 3 382 391 392 383
115 3 2 1 3 383 392 393 384
116 3 2 1 3 384 393 394 385
117 3 2 1 3 385 394 395 386
118 3 2 1 3 386 395 396 387
119 3 2 1 3 387 396 397 388
120 3 2 1 3 388 397 398 389
121 3 2 1 3 389 398 399 390
122 3 2 1 3 390 399 251 252
123 3 2 1 3 242 241 400 391
124 3 2 1 3 391 400 401 392
125 3 2 1 3 392 401 402 393
126 3 2 1 3 393 402 403 394
127 3 2 1 3 394 403 404 395
128 3 2 1 3 395 404 405 396
129 3 2 1 3 396 405 406 397
130 3 2 1 3 397 406 407 398
131 3 2 1 3 398 407 408 399
132 3 2 1 3 399 408 250 251
133 3 2 1 3 241 240 409 400
134 3 2 1 3 400 409 410 401
135 3 2 1 3 401 410 411 402
136 3 2 1 3 402 411 412 403
137 3 2 1 3 403 412 413 404
138 3 2 1 3 404 413 414 405
139 3 2 1 3 405 414 415 406
140 3 2 1 3 406 415 416 407
141 3 2 1 3 407 416 417 408
142 3 2 1 3 408 417 249 250
143 3 2 1 3 240 239 418 409
144 3 2 1 3 409 418 419 410
145 3 2 1 3 410 419 420 411
146 3 2 1 3 411 420 421 412
147 3 2 1 3 412 421 422 413
148 3 2 1 3 413 422 423 414
149 3 2 1 3 414 423 424 415
150 3 2 1 3 415 424 425 416
151 3 2 1 3 416 425 426 417
152 3 2 1 3 417 426 248 249
153 3 2 1 3 239 238 427 418
154 3 2 1 3 418 427 428 419
155 3 2 1 3 419 428 429 420
156 3 2 1 3 420 429 430 421
157 3 2 1 3 421 430 431 422
158 3 2 1 3 422 431 432 423
159 3 2 1 3 423 432 433 424
160 3 2 1 3 424 433 434 425
161 3 2 1 3 425 434 435 426
162 3 2 1 3 426 435 247 248
163 3 2 1 3 238 3 38 427
164 3 2 1 3 427 38 39 428
165 3 2 1 3 428 39 40 429
166 3 2 1 3 429 40 41 430
167 3 2 1 3 430 41 42 431
168 3 2 1 3 431 42 43 432
169 3 2 1 3 432 43 44 433
170 3 2 1 3 433 44 45 434
171 3 2 1 3 434 45 46 435
172 3 2 1 3 435 46 4 247
173 3 2 1 4 21 255 436 215
174 3 2 1 4 215 436 437 214
175 3 2 1 4 214 437 264 20
176 3 2 1 4 255 254 438 436
177 3 2 1 4 436 438 439 437
178 3 2 1 4 437 439 263 264
179 3 2 1 4 254 253 440 438
180 3 2 1 4 438 440 441 439
181 3 2 1 4 439 441 262 263
182 3 2 1 4 253 252 442 440
183 3 2 1 4 440 442 443 441
184 3 2 1 4 441 443 261 262
185 3 2 1 4 252 251 444 442
186 3 2 1 4 442 444 445 443
187 3 2 1 4 443 445 260 261
188 3 2 1 4 251 250 446 444
189 3 2 1 4 444 446 447 445
190 3 2 1 4 445 447 259 260
191 3 2 1 4 250 249 448 446
192 3 2 1 4 446 448 449 447
193 3 2 1 4 447 449 258 259
194 3 2 1 4 249 248 450 448
195 3 2 1 4 448 450 451 449
196 3 2 1 4 449 451 257 258
197 3 2 1 4 248 247 452 450
198 3 2 1 4 450 452 453 451
199 3 2 1 4 451 453 256 257
200 3 2 1 4 247 4 47 452
201 3 2 1 4 452 47 48 453
202 3 2 1 4 453 48 5 256
203 3 2 1 5 20 264 454 213
204 3 2 1 5 213 454 455 212
205 3 2 1 5 212 455 456 211
206 3 2 1 5 211 456 457 210
207 3 2 1 5 210 457 458 209
208 3 2 1 5 209 458 459 208
209 3 2 1 5 208 459 460 207
210 3 2 1 5 207 460 461 206
211 3 2 1 5 206 461 462 205
212 3 2 1 5 205 462 463 204
213 3 2 1 5 204 463 464 203
214 3 2 1 5 203 464 465 202
215 3 2 1 5 202 465 466 201
216 3 2 1 5 201 466 467 200
217 3 2 1 5 200 467 468 199
218 3 2 1 5 199 468 469 198
219 3 2 1 5 198 469 470 197
220 3 2 1 5 197 470 471 196
221 3 2 1 5 196 471 472 195
222 3 2 1 5 195 472 473 194
223 3 2 1 5 194 473 474 193
224 3 2 1 5 193 474 475 192
225 3 2 1 5 192 475 476 191
226 3 2 1 5 191 476 477 190
227 3 2 1 5 190 477 478 189
228 3 2 1 5 189 478 479 188
229 3 2 1 5 188 479 480 187
230 3 2 1 5 187 480 481 186
231 3 2 1 5 186 481 273 19
232 3 2 1 5 264 263 482 454
233 3 2 1 5 454 482 483 455
234 3 2 1 5 455 483 484 456
235 3 2 1 5 456 484 485 457
236 3 2 1 5 457 485 486 458
237 3 2 1 5 458 486 487 459
238 3 2 1 5 459 487 488 460
239 3 2 1 5 460 488 489 461
240 3 2 1 5 461 489 490 462
241 3 2 1 5 462 490 491 463
242 3 2 1 5 463 491 492 464
243 3 2 1 5 464 492 493 465
244 3 2 1 5 465 493 494 466
245 3 2 1 5 466 494 495 467
246 3 2 1 5 467 495 496 468
247 3 2 1 5 468 496 497 469
248 3 2 1 5 469 497 498 470
249 3 2 1 5 470 498 499 471
250 3 2 1 5 471 499 500 472
251 3 2 1 5 472 500 501 473
252 3 2 1 5 473 501 502 474
253 3 2 1 5 474 502 503 475
254 3 2 1 5 475 503 504 476
255 3 2 1 5 476 504 505 477
256 3 2 1 5 477 505 506 478
257 3 2 1 5 478 506 507 479
258 3 2 1 5 479 507 508 480
259 3 2 1 5 480 508 509 481
260 3 2 1 5 481 509 272 273
261 3 2 1 5 263 262 510 482
262 3 2 1 5 482 510 511 483
263 3 2 1 5 483 511 512 484
264 3 2 1 5 484 512 513 485
265 3 2 1 5 485 513 514 486
266 3 2 1 5 486 514 515 487
267 3 2 1 5 487 515 516 488
268 3 2 1 5 488 516 517 489
269 3 2 1 5 489 517 518 490
270 3 2 1 5 490 518 519 491
271 3 2 1 5 491 519 520 492
272 3 2 1 5 492 520 521 493
273 3 2 1 5 493 521 522 494
274 3 2 1 5 494 522 523 495
275 3 2 1 5 495 523 524 496
276 3 2 1 5 496 524 525 497
277 3 2 1 5 497 525 526 498
278 3 2 1 5 498 526 527 499
279 3 2 1 5 499 527 528 500
280 3 2 1 5 500 528 529 501
281 3 2 1 5 501 529 530 502
282 3 2 1 5 502 530 531 503
283 3 2 1 5 503 531 532 504
284 3 2 1 5 504 532 533 505
285 3 2 1 5 505 533 534 506
286 3 2 1 5 506 534 535 507
287 3 2 1 5 507 535 536 508
288 3 2 1 5 508 536 537 509
289 3 2 1 5 509 537 271 272
290 3 2 1 5 262 261 538 510
291 3 2 1 5 510 538 539 511
292 3 2 1 5 511 539 540 512
293 3 2 1 5 512 540 541 513
294 3 2 1 5 513 541 542 514
295 3 2 1 5 514 542 543 515
296 3 2 1 5 515 543 544 516
297 3 2 1 5 516 544 545 517
298 3 2 1 5 517 545 546 518
299 3 2 1 5 518 546 547 519
300 3 2 1 5 519 547 548 520
301 3 2 1 5 520 548 549 521
302 3 2 1 5 521 549 550 522
303 3 2 1 5 522 550 551 523
304 3 2 1 5 523 551 552 524
305 3 2 1 5 524 552 553 525
306 3 2 1 5 525 553 554 526
307 3 2 1 5 526 554 555 527
308 3 2 1 5 527 555 556 528
309 3 2 1 5 528 556 557 529
310 3 2 1 5 529 557 558 530
311 3 2 1 5 530 558 559 531
312 3 2 1 5 531 559 560 532
313 3 2 1 5 532 560 561 533
314 3 2 1 5 533 561 562 534
315 3 2 1 5 534 562 563 535
316 3 2 1 5 535 563 564 536
317 3 2 1 5 536 564 565 537
318 3 2 1 5 537 565 270 271
319 3 2 1 5 261 260 566 538
320 3 2 1 5 538 566 567 539
321 3 2 1 5 539 567 568 540
322 3 2 1 5 540 568 569 541
323 3 2 1 5 541 569 570 542
324 3 2 1 5 542 570 571 543
325 3 2 1 5 543 571 572 544
326 3 2 1 5 544 572 573 545
327 3 2 1 5 545 573 574 546
328 3 2 1 5 546 574 575 547
329 3 2 1 5 547 575 576 548
330 3 2 1 5 548 576 577 549
331 3 2 1 5 549 577 578 550
332 3 2 1 5 550 578 579 551
333 3 2 1 5 551 579 580 552
334 3 2 1 5 552 580 581 553
335 3 2 1 5 553 581 582 554
336 3 2 1 5 554 582 583 555
337 3 2 1 5 555 583 584 556
338 3 2 1 5 556 584 585 557
339 3 2 1 5 557 585 586 558
340 3 2 1 5 558 586 587 559
341 3 2 1 5 559 587 588 560
342 3 2 1 5 560 588 589 561
343 3 2 1 5 561 589 590 562
344 3 2 1 5 562 590 591 563
345 3 2 1 5 563 591 592 564
346 3 2 1 5 564 592 593 565
347 3 2 1 5 565 593 269 270
348 3 2 1 5 260 259 594 566
349 3 2 1 5 566 594 595 567
350 3 2 1 5 567 595 596 568
351 3 2 1 5 568 596 597 569
352 3 2 1 5 569 597 598 570
353 3 2 1 5 570 598 599 571
354 3 2 1 5 571 599 600 572
355 3 2 1 5 572 600 601 573
356 3 2 1 5 573 601 602 574
357 3 2 1 5 574 602 603 575
358 3 2 1 5 575 603 604 576
359 3 2 1 5 576 604 605 577
360 3 2 1 5 577 605 606 578
361 3 2 1 5 578 606 607 579
362 3 2 1 5 579 607 608 580
363 3 2 1 5 580 608 609 581
364 3 2 1 5 581 609 610 582
365 3 2 1 5 582 610 611 583
366 3 2 1 5 583 611 612 584
367 3 2 1 5 584 612 613 585
368 3 2 1 5 585 613 614 586
369 3 2 1 5 586 614 615 587
370 3 2 1 5 587 615 616 588
371 3 2 1 5 588 616 617 589
372 3 2 1 5 589 617 618 590
373 3 2 1 5 590 618 619 591
374 3 2 1 5 591 619 620 592
375 3 2 1 5 592 620 621 593
376 3 2 1 5 593 621 268 269
377 3 2 1 5 259 258 622 594
378 3 2 1 5 594 622 623 595
379 3 2 1 5 595 623 624 596
380 3 2 1 5 596 624 625 597
381 3 2 1 5 597 625 626 598
382 3 2 1 5 598 626 627 599
383 3 2 1 5 599 627 628 600
384 3 2 1 5 600 628 629 601
385 3 2 1 5 601 629 630 602
386 3 2 1 5 602 630 631 603
387 3 2 1 5 603 631 632 604
388 3 2 1 5 604 632 633 605
389 3 2 1 5 605 633 634 606
390 3 2 1 5 606 634 635 607
391 3 2 1 5 607 635 636 608
392 3 2 1 5 608 636 637 609
393 3 2 1 5 609 637 638 610
394 3 2 1 5 610 638 639 611
395 3 2 1 5 611 639 640 612
396 3 2 1 5 612 640 641 613
397 3 2 1 5 613 641 642 614
398 3 2 1 5 614 642 643 615
399 3 2 1 5 615 643 644 616
400 3 2 1 5 616 644 645 617
401 3 2 1 5 617 645 646 618
402 3 2 1 5 618 646 647 619
403 3 2 1 5 619 647 648 620
404 3 2 1 5 620 648 649 621
405 3 2 1 5 621 649 267 268
406 3 2 1 5 258 257 650 622
407 3 2 1 5 622 650 651 623
408 3 2 1 5 623 651 652 624
409 3 2 1 5 624 652 653 625
410 3 2 1 5 625 653 654 626
411 3 2 1 5 626 654 655 627
412 3 2 1 5 627 655 656 628
413 3 2 1 5 628 656 657 629
414 3 2 1 5 629 657 658 630
415 3 2 1 5 630 658 659 631
416 3 2 1 5 631 659 660 632
417 3 2 1 5 632 660 661 633
418 3 2 1 5 633 661 662 634
419 3 2 1 5 634 662 663 635
420 3 2 1 5 635 663 664 636
421 3 2 1 5 636 664 665 637
422 3 2 1 5 637 665 666 638
423 3 2 1 5 638 666 667 639
424 3 2 1 5 639 667 668 640
425 3 2 1 5 640 668 669 641
426 3 2 1 5 641 669 670 642
427 3 2 1 5 642 670 671 643
428 3 2 1 5 643 671 672 644
429 3 2 1 5 644 672 673 645
430 3 2 1 5 645 673 674 646
431 3 2 1 5 646 674 675 647
432 3 2 1 5 647 675 676 648
433 3 2 1 5 648 676 677 649
434 3 2 1 5 649 677 266 267
435 3 2 1 5 257 256 678 650
436 3 2 1 5 650 678 679 651
437 3 2 1 5 651 679 680 652
438 3 2 1 5 652 680 681 653
439 3 2 1 5 653 681 682 654
440 3 2 1 5 654 682 683 655
441 3 2 1 5 655 683 684 656
442 3 2 1 5 656 684 685 657
443 3 2 1 5 657 685 686 658
444 3 2 1 5 658 686 687 659
445 3 2 1 5 659 687 688 660
446 3 2 1 5 660 688 689 661
447 3 2 1 5 661 689 690 662
448 3 2 1 5 662 690 691 663
449 3 2 1 5 663 691 692 664
450 3 2 1 5 664 692 693 665
451 3 2 1 5 665 693 694 666
452 3 2 1 5 666 694 695 667
453 3 2 1 5 667 695 696 668
454 3 2 1 5 668 696 697 669
455 3 2 1 5 669 697 698 670
456 3 2 1 5 670 698 699 671
457 3 2 1 5 671 699 700 672
458 3 2 1 5 672 700 701 673
459 3 2 1 5 673 701 702 674
460 3 2 1 5 674 702 703 675
461 3 2 1 5 675 703 704 676
462 3 2 1 5 676 704 705 677
463 3 2 1 5 677 705 265 266
464 3 2 1 5 256 5 49 678
465 3 2 1 5 678 49 50 679
466 3 2 1 5 679 50 51 680
467 3 2 1 5 680 51 52 681
468 3 2 1 5 681 52 53 682
469 3 2 1 5 682 53 54 683
470 3 2 1 5 683 54 55 684
471 3 2 1 5 684 55 56 685
472 3 2 1 5 685 56 57 686
473 3 2 1 5 686 57 58 687
474 3 2 1 5 687 58 59 688
475 3 2 1 5 688 59 60 689
476 3 2 1 5 689 60 61 690
477 3 2 1 5 690 61 62 691
478 3 2 1 5 691 62 63 692
479 3 2 1 5 692 63 64 693
480 3 2 1 5 693 64 65 694
481 3 2 1 5 694 65 66 695
482 3 2 1 5 695 66 67 696
483 3 2 1 5 696 67 68 697
484 3 2 1 5 697 68 69 698
485 3 2 1 5 698 69 70 699
486 3 2 1 5 699 70 71 700
487 3 2 1 5 700 71 72 701
488 3 2 1 5 701 72 73 702
489 3 2 1 5 702 73 74 703
490 3 2 1 5 703 74 75 704
491 3 2 1 5 704 75 76 705
492 3 2 1 5 705 76 6 265
493 3 2 2 6 19 273 706 185
494 3 2 2 6 185 706 707 184
495 3 2 2 6 184 707 708 183
496 3 2 2 6 183 708 709 182
497 3 2 2 6 182 709 710 181
498 3 2 2 6 181 710 711 180
499 3 2 2 6 180 711 712 179
500 3 2 2 6 179 712 282 18
501 3 2 2 6 273 272 713 706
502 3 2 2 6 706 713 714 707
503 3 2 2 6 707 714 715 708
504 3 2 2 6 708 715 716 709
505 3 2 2 6 709 716 717 710
506 3 2 2 6 710 717 718 711
507 3 2 2 6 711 718 719 712
508 3 2 2 6 712 719 281 282
509 3 2 2 6 272 271 720 713
510 3 2 2 6 713 720 721 714
511 3 2 2 6 714 721 722 715
512 3 2 2 6 715 722 723 716
513 3 2 2 6 716 723 724 717
514 3 2 2 6 717 724 725 718
515 3 2 2 6 718 725 726 719
516 3 2 2 6 719 726 280 281
517 3 2 2 6 271 270 727 720
518 3 2 2 6 720 727 728 721
519 3 2 2 6 721 728 729 722
520 3 2 2 6 722 729 730 723
521 3 2 2 6 723 730 731 724
522 3 2 2 6 724 731 732 725
523 3 2 2 6 725 732 733 726
524 3 2 2 6 726 733 279 280
525 3 2 2 6 270 269 734 727
526 3 2 2 6 727 734 735 728
527 3 2 2 6 728 735 736 729
528 3 2 2 6 729 736 737 730
529 3 2 2 6 730 737 738 731
530 3 2 2 6 731 738 739 732
531 3 2 2 6 732 739 740 733
532 3 2 2 6 733 740 278 279
533 3 2 2 6 269 268 741 734
534 3 2 2 6 734 741 742 735
535 3 2 2 6 735 742 743 736
536 3 2 2 6 736 743 744 737
537 3 2 2 6 737 744 745 738
538 3 2 2 6 738 745 746 739
539 3 2 2 6 739 746 747 740
540 3 2 2 6 740 747 277 278
541 3 2 2 6 268 267 748 741
542 3 2 2 6 741 748 749 742
543 3 2 2 6 742 749 750 743
544 3 2 2 6 743 750 751 744
545 3 2 2 6 744 751 752 745
546 3 2 2 6 745 752 753 746
547 3 2 2 6 746 753 754 747
548 3 2 2 6 747 754 276 277
549 3 2 2 6 267 266 755 748
550 3 2 2 6 748 755 756 749
551 3 2 2 6 749 756 757 750
552 3 2 2 6 750 757 758 751
553 3 2 2 6 751 758 759 752
554 3 2 2 6 752 759 760 753
555 3 2 2 6 753 760 761 754
556 3 2 2 6 754 761 275 276
557 3 2 2 6 266 265 762 755
558 3 2 2 6 755 762 763 756
559 3 2 2 6 756 763 764 757
560 3 2 2 6 757 764 765 758
561 3 2 2 6 758 765 766 759
562 3 2 2 6 759 766 767 760
563 3 2 2 6 760 767 768 761
564 3 2 2 6 761 768 274 275
565 3 2 2 6 265 6 77 762
566 3 2 2 6 762 77 78 763
567 3 2 2 6 763 78 79 764
568 3 2 2 6 764 79 80 765
569 3 2 2 6 765 80 81 766
570 3 2 2 6 766 81 82 767
571 3 2 2 6 767 82 83 768
572 3 2 2 6 768 83 7 274
573 3 2 1 7 18 282 769 178
574 3 2 1 7 178 769 770 177
575 3 2 1 7 177 770 771 176
576 3 2 1 7 176 771 772 175
577 3 2 1 7 175 772 773 174
578 3 2 1 7 174 773 774 173
579 3 2 1 7 173 774 775 172
580 3 2 1 7 172 775 776 171
581 3 2 1 7 171 776 777 170
582 3 2 1 7 170 777 778 169
583 3 2 1 7 169 778 779 168
584 3 2 1 7 168 779 780 167
585 3 2 1 7 167 780 781 166
586 3 2 1 7 166 781 782 165
587 3 2 1 7 165 782 783 164
588 3 2 1 7 164 783 784 163
589 3 2 1 7 163 784 785 162
590 3 2 1 7 162 785 786 161
591 3 2 1 7 161 786 787 160
592 3 2 1 7 160 787 788 159
593 3 2 1 7 159 788 789 158
594 3 2 1 7 158 789 790 157
595 3 2 1 7 157 790 791 156
596 3 2 1 7 156 791 792 155
597 3 2 1 7 155 792 793 154
598 3 2 1 7 154 793 794 153
599 3 2 1 7 153 794 795 152
600 3 2 1 7 152 795 796 151
601 3 2 1 7 151 796 291 17
602 3 2 1 7 282 281 797 769
603 3 2 1 7 769 797 798 770
604 3 2 1 7 770 798 799 771
605 3 2 1 7 771 799 800 772
606 3 2 1 7 772 800 801 773
607 3 2 1 7 773 801 802 774
608 3 2 1 7 774 802 803 775
609 3 2 1 7 775 803 804 776
610 3 2 1 7 776 804 805 777
611 3 2 1 7 777 805 806 778
612 3 2 1 7 778 806 807 779
613 3 2 1 7 779 807 808 780
614 3 2 1 7 780 808 809 781
615 3 2 1 7 781 809 810 782
616 3 2 1 7 782 810 811 783
617 3 2 1 7 783 811 812 784
618 3 2 1 7 784 812 813 785
619 3 2 1 7 785 813 814 786
620 3 2 1 7 786 814 815 787
621 3 2 1 7 787 815 816 788
622 3 2 1 7 788 816 817 789
623 3 2 1 7 789 817 818 790
624 3 2 1 7 790 818 819 791
625 3 2 1 7 791 819 820 792
626 3 2 1 7 792 820 821 793
627 3 2 1 7 793 821 822 794
628 3 2 1 7 794 822 823 795
629 3 2 1 7 795 823 824 796
630 3 2 1 7 796 824 290 291
631 3 2 1 7 281 280 825 797
632 3 2 1 7 797 825 826 798
633 3 2 1 7 798 826 827 799
634 3 2 1 7 799 827 828 800
635 3 2 1 7 800 828 829 801
636 3 2 1 7 801 829 830 802
637 3 2 1 7 802 830 831 803
638 3 2 1 7 803 831 832 804
639 3 2 1 7 804 832 833 805
640 3 2 1 7 805 833 834 806
641 3 2 1 7 806 834 835 807
642 3 2 1 7 807 835 836 808
643 3 2 1 7 808 836 837 809
644 3 2 1 7 809 837 838 810
645 3 2 1 7 810 838 839 811
646 3 2 1 7 811 839 840 812
647 3 2 1 7 812 840 841 813
648 3 2 1 7 813 841 842 814
649 3 2 1 7 814 842 843 815
650 3 2 1 7 815 843 844 816
651 3 2 1 7 816 844 845 817
652 3 2 1 7 817 845 846 818
653 3 2 1 7 818 846 847 819
654 3 2 1 7 819 847 848 820
655 3 2 1 7 820 848 849 821
656 3 2 1 7 821 849 850 822
657 3 2 1 7 822 850 851 823
658 3 2 1 7 823 851 852 824
659 3 2 1 7 824 852 289 290
660 3 2 1 7 280 279 853 825
661 3 2 1 7 825 853 854 826
662 3 2 1 7 826 854 855 827
663 3 2 1 7 827 855 856 828
664 3 2 1 7 828 856 857 829
665 3 2 1 7 829 857 858 830
666 3 2 1 7 830 858 859 831
667 3 2 1 7 831 859 860 832
668 3 2 1 7 832 860 861 833
669 3 2 1 7 833 861 862 834
670 3 2 1 7 834 862 863 835
671 3 2 1 7 835 863 864 836
672 3 2 1 7 836 864 865 837
673 3 2 1 7 837 865 866 838
674 3 2 1 7 838 866 867 839
675 3 2 1 7 839 867 868 840
676 3 2 1 7 840 868 869 841
677 3 2 1 7 841 869 870 842
678 3 2 1 7 842 870 871 843
679 3 2 1 7 843 871 872 844
680 3 2 1 7 844 872 873 845
681 3 2 1 7 845 873 874 846
682 3 2 1 7 846 874 875 847
683 3 2 1 7 847 875 876 848
684 3 2 1 7 848 876 877 849
685 3 2 1 7 849 877 878 850
686 3 2 1 7 850 878 879 851
687 3 2 1 7 851 879 880 852
688 3 2 1 7 852 880 288 289
689 3 2 1 7 279 278 881 853
690 3 2 1 7 853 881 882 854
691 3 2 1 7 854 882 883 855
692 3 2 1 7 855 883 884 856
693 3 2 1 7 856 884 885 857
694 3 2 1 7 857 885 886 858
695 3 2 1 7 858 886 887 859
696 3 2 1 7 859 887 888 860
697 3 2 1 7 860 888 889 861
698 3 2 1 7 861 889 890 862
699 3 2 1 7 862 890 891 863
700 3 2 1 7 863 891 892 864
701 3 2 1 7 864 892 893 865
702 3 2 1 7 865 893 894 866
703 3 2 1 7 866 894 895 867
704 3 2 1 7 867 895 896 868
705 3 2 1 7 868 896 897 869
706 3 2 1 7 869 897 898 870
707 3 2 1 7 870 898 899 871
708 3 2 1 7 871 899 900 872
709 3 2 1 7 872 900 901 873
710 3 2 1 7 873 901 902 874
711 3 2 1 7 874 902 903 875
712 3 2 1 7 875 903 904 876
713 3 2 1 7 876 904 905 877
714 3 2 1 7 877 905 906 878
715 3 2 1 7 878 906 907 879
716 3 2 1 7 879 907 908 880
717 3 2 1 7 880 908 287 288
718 3 2 1 7 278 277 909 881
719 3 2 1 7 881 909 910 882
720 3 2 1 7 882 910 911 883
721 3 2 1 7 883 911 912 884
722 3 2 1 7 884 912 913 885
723 3 2 1 7 885 913 914 886
724 3 2 1 7 886 914 915 887
725 3 2 1 7 887 915 916 888
726 3 2 1 7 888 916 917 889
727 3 2 1 7 889 917 918 890
728 3 2 1 7 890 918 919 891
729 3 2 1 7 891 919 920 892
730 3 2 1 7 892 920 921 893
731 3 2 1 7 893 921 922 894
732 3 2 1 7 894 922 923 895
733 3 2 1 7 895 923 924 896
734 3 2 1 7 896 924 925 897
735 3 2 1 7 897 925 926 898
736 3 2 1 7 898 926 927 899
737 3 2 1 7 899 927 928 900
738 3 2 1 7 900 928 929 901
739 3 2 1 7 901 929 930 902
740 3 2 1 7 902 930 931 903
741 3 2 1 7 903 931 932 904
742 3 2 1 7 904 932 933 905
743 3 2 1 7 905 933 934 906
744 3 2 1 7 906 934 935 907
745 3 2 1 7 907 935 936 908
746 3 2 1 7 908 936 286 287
747 3 2 1 7 277 276 937 909
748 3 2 1 7 909 937 938 910
749 3 2 1 7 910 938 939 911
750 3 2 1 7 911 939 940 912
751 3 2 1 7 912 940 941 913
752 3 2 1 7 913 941 942 914
753 3 2 1 7 914 942 943 915
754 3 2 1 7 915 943 944 916
755 3 2 1 7 916 944 945 917
756 3 2 1 7 917 945 946 918
757 3 2 1 7 918 946 947 919
758 3 2 1 7 919 947 948 920
759 3 2 1 7 920 948 949 921
760 3 2 1 7 921 949 950 922
761 3 2 1 7 922 950 951 923
762 3 2 1 7 923 951 952 924
763 3 2 1 7 924 952 953 925
764 3 2 1 7 925 953 954 926
765 3 2 1 7 926 954 955 927
766 3 2 1 7 927 955 956 928
767 3 2 1 7 928 956 957 929
768 3 2 1 7 929 957 958 930
769 3 2 1 7 930 958 959 931
770 3 2 1 7 931 959 960 932
771 3 2 1 7 932 960 961 933
772 3 2 1 7 933 961 962 934
773 3 2 1 7 934 962 963 935
774 3 2 1 7 935 963 964 936
775 3 2 1 7 936 964 285 286
776 3 2 1 7 276 275 965 937
777 3 2 1 7 937 965 966 938
778 3 2 1 7 938 966 967 939
779 3 2 1 7 939 967 968 940
780 3 2 1 7 940 968 969 941
781 3 2 1 7 941 969 970 942
782 3 2 1 7 942 970 971 943
783 3 2 1 7 943 971 972 944
784 3 2 1 7 944 972 973 945
785 3 2 1 7 945 973 974 946
786 3 2 1 7 946 974 975 947
787 3 2 1 7 947 975 976 948
788 3 2 1 7 948 976 977 949
789 3 2 1 7 949 977 978 950
790 3 2 1 7 950 978 979 951
791 3 2 1 7 951 979 980 952
792 3 2 1 7 952 980 981 953
793 3 2 1 7 953 981 982 954
794 3 2 1 7 954 982 983 955
795 3 2 1 7 955 983 984 956
796 3 2 1 7 956 984 985 957
797 3 2 1 7 957 985 986 958
798 3 2 1 7 958 986 987 959
799 3 2 1 7 959 987 988 960
800 3 2 1 7 960 988 989 961
801 3 2 1 7 961 989 990 962
802 3 2 1 7 962 990 991 963
803 3 2 1 7 963 991 992 964
804 3 2 1 7 964 992 284 285
805 3 2 1 7 275 274 993 965
806 3 2 1 7 965 993 994 966
807 3 2 1 7 966 994 995 967
808 3 2 1 7 967 995 996 968
809 3 2 1 7 968 996 997 969
810 3 2 1 7 969 997 998 970
811 3 2 1 7 970 998 999 971
812 3 2 1 7 971 999 1000 972
813 3 2 1 7 972 1000 1001 973
814 3 2 1 7 973 1001 1002 974
815 3 2 1 7 974 1002 1003 975
816 3 2 1 7 975 1003 1004 976
817 3 2 1 7 976 1004 1005 977
818 3 2 1 7 977 1005 1006 978
819 3 2 1 7 978 1006 1007 979
820 3 2 1 7 979 1007 1008 980
821 3 2 1 7 980 1008 1009 981
822 3 2 1 7 981 1009 1010 982
823 3 2 1 7 982 1010 1011 983
824 3 2 1 7 983 1011 1012 984
825 3 2 1 7 984 1012 1013 985
826 3 2 1 7 985 1013 1014 986
827 3 2 1 7 986 1014 1015 987
828 3 2 1 7 987 1015 1016 988
829 3 2 1 7 988 1016 1017 989
830 3 2 1 7 989 1017 1018 990
831 3 2 1 7 990 1018 1019 991
832 3 2 1 7 991 1019 1020 992
833 3 2 1 7 992 1020 283 284
834 3 2 1 7 274 7 84 993
835 3 2 1 7 993 84 85 994
836 3 2 1 7 994 85 86 995
837 3 2 1 7 995 86 87 996
838 3 2 1 7 996 87 88 997
839 3 2 1 7 997 88 89 998
840 3 2 1 7 998 89 90 999
841 3 2 1 7 999 90 91 1000
842 3 2 1 7 1000 91 92 1001
843 3 2 1 7 1001 92 93 1002
844 3 2 1 7 1002 93 94 1003
845 3 2 1 7 1003 94 95 1004
846 3 2 1 7 1004 95 96 1005
847 3 2 1 7 1005 96 97 1006
848 3 2 1 7 1006 97 98 1007
849 3 2 1 7 1007 98 99 1008
850 3 2 1 7 1008 99 100 1009
851 3 2 1 7 1009 100 101 1010
852 3 2 1 7 1010 101 102 1011
853 3 2 1 7 1011 102 103 1012
854 3 2 1 7 1012 103 104 1013
855 3 2 1 7 1013 104 105 1014
856 3 2 1 7 1014 105 106 1015
857 3 2 1 7 1015 106 107 1016
858 3 2 1 7 1016 107 108 1017
859 3 2 1 7 1017 108 109 1018
860 3 2 1 7 1018 109 110 1019
861 3 2 1 7 1019 110 111 1020
862 3 2 1 7 1020 111 8 283
863 3 2 1 8 17 291 1021 150
864 3 2 1 8 150 1021 1022 149
865 3 2 1 8 149 1022 300 16
866 3 2 1 8 291 290 1023 1021
867 3 2 1 8 1021 1023 1024 1022
868 3 2 1 8 1022 1024 299 300
869 3 2 1 8 290 289 1025 1023
870 3 2 1 8 1023 1025 1026 1024
871 3 2 1 8 1024 1026 298 299
872 3 2 1 8 289 288 1027 1025
873 3 2 1 8 1025 1027 1028 1026
874 3 2 1 8 1026 1028 297 298
875 3 2 1 8 288 287 1029 1027
876 3 2 1 8 1027 1029 1030 1028
877 3 2 1 8 1028 1030 296 297
878 3 2 1 8 287 286 1031 1029
879 3 2 1 8 1029 1031 1032 1030
880 3 2 1 8 1030 1032 295 296
881 3 2 1 8 286 285 1033 1031
882 3 2 1 8 1031 1033 1034 1032
883 3 2 1 8 1032 1034 294 295
884 3 2 1 8 285 284 1035 1033
885 3 2 1 8 1033 1035 1036 1034
886 3 2 1 8 1034 1036 293 294
887 3 2 1 8 284 283 1037 1035
888 3 2 1 8 1035 1037 1038 1036
889 3 2 1 8 1036 1038 292 293
890 3 2 1 8 283 8 112 1037
891 3 2 1 8 1037 112 113 1038
892 3 2 1 8 1038 113 9 292
893 3 2 1 9 16 300 1039 148
894 3 2 1 9 148 1039 1040 147
895 3 2 1 9 147 1040 1041 146
896 3 2 1 9 146 1041 1042 145
897 3 2 1 9 145 1042 1043 144
898 3 2 1 9 144 1043 1044 143
899 3 2 1 9 143 1044 1045 142
900 3 2 1 9 142 1045 1046 141
901 3 2 1 9 141 1046 1047 140
902 3 2 1 9 140 1047 309 15
903 3 2 1 9 300 299 1048 1039
904 3 2 1 9 1039 1048 1049 1040
905 3 2 1 9 1040 1049 1050 1041
906 3 2 1 9 1041 1050 1051 1042
907 3 2 1 9 1042 1051 1052 1043
908 3 2 1 9 1043 1052 1053 1044
909 3 2 1 9 1044 1053 1054 1045
910 3 2 1 9 1045 1054 1055 1046
911 3 2 1 9 1046 1055 1056 1047
912 3 2 1 9 1047 1056 308 309
913 3 2 1 9 299 298 1057 1048
914 3 2 1 9 1048 1057 1058 1049
915 3 2 1 9 1049 1058 1059 1050
916 3 2 1 9 1050 1059 1060 1051
917 3 2 1 9 1051 1060 1061 1052
918 3 2 1 9 1052 1061 1062 1053
919 3 2 1 9 1053 1062 1063 1054
920 3 2 1 9 1054 1063 1064 1055
921 3 2 1 9 1055 1064 1065 1056
922 3 2 1 9 1056 1065 307 308
923 3 2 1 9 298 297 1066 1057
924 3 2 1 9 1057 1066 1067 1058
925 3 2 1 9 1058 1067 1068 1059
926 3 2 1 9 1059 1068 1069 1060
927 3 2 1 9 1060 1069 1070 1061
928 3 2 1 9 1061 1070 1071 1062
929 3 2 1 9 1062 1071 1072 1063
930 3 2 1 9 1063 1072 1073 1064
931 3 2 1 9 1064 1073 1074 1065
932 3 2 1 9 1065 1074 306 307
933 3 2 1 9 297 296 1075 1066
934 3 2 1 9 1066 1075 1076 1067
935 3 2 1 9 1067 1076 1077 1068
936 3 2 1 9 1068 1077 1078 1069
937 3 2 1 9 1069 1078 1079 1070
938 3 2 1 9 1070 1079 1080 1071
939 3 2 1 9 1071 1080 1081 1072
940 3 2 1 9 1072 1081 1082 1073
941 3 2 1 9 1073 1082 1083 1074
942 3 2 1 9 1074 1083 305 306
943 3 2 1 9 296 295 1084 1075
944 3 2 1 9 1075 1084 1085 1076
945 3 2 1 9 1076 1085 1086 1077
946 3 2 1 9 1077 1086 1087 1078
947 3 2 1 9 1078 1087 1088 1079
948 3 2 1 9 1079 1088 1089 1080
949 3 2 1 9 1080 1089 1090 1081
950 3 2 1 9 1081 1090 1091 1082
951 3 2 1 9 1082 1091 1092 1083
952 3 2 1 9 1083 1092 304 305
953 3 2 1 9 295 294 1093 1084
954 3 2 1 9 1084 1093 1094 1085
955 3 2 1 9 1085 1094 1095 1086
956 3 2 1 9 1086 1095 1096 1087
957 3 2 1 9 1087 1096 1097 1088
958 3 2 1 9 1088 1097 1098 1089
959 3 2 1 9 1089 1098 1099 1090
960 3 2 1 9 1090 1099 1100 1091
961 3 2 1 9 1091 1100 1101 1092
962 3 2 1 9 1092 1101 303 304
963 3 2 1 9 294 293 1102 1093
964 3 2 1 9 1093 1102 1103 1094
965 3 2 1 9 1094 1103 1104 1095
966 3 2 1 9 1095 1104 1105 1096
967 3 2 1 9 1096 1105 1106 1097
968 3 2 1 9 1097 1106 1107 1098
969 3 2 1 9 1098 1107 1108 1099
970 3 2 1 9 1099 1108 1109 1100
971 3 2 1 9 1100 1109 1110 1101
972 3 2 1 9 1101 1110 302 303
973 3 2 1 9 293 292 1111 1102
974 3 2 1 9 1102 1111 1112 1103
975 3 2 1 9 1103 1112 1113 1104
976 3 2 1 9 1104 1113 1114 1105
977 3 2 1 9 1105 1114 1115 1106
978 3 2 1 9 1106 1115 1116 1107
979 3 2 1 9 1107 1116 1117 1108
980 3 2 1 9 1108 1117 1118 1109
981 3 2 1 9 1109 1118 1119 1110
982 3 2 1 9 1110 1119 301 302
983 3 2 1 9 292 9 114 1111
984 3 2 1 9 1111 114 115 1112
985 3 2 1 9 1112 115 116 1113
986 3 2 1 9 1113 116 117 1114
987 3 2 1 9 1114 117 118 1115
988 3 2 1 9 1115 118 119 1116
989 3 2 1 9 1116 119 120 1117
990 3 2 1 9 1117 120 121 1118
991 3 2 1 9 1118 121 122 1119
992 3 2 1 9 1119 122 10 301
993 3 2 1 10 15 309 1120 139
994 3 2 1 10 139 1120 1121 138
995 3 2 1 10 138 1121 318 14
996 3 2 1 10 309 308 1122 1120
997 3 2 1 10 1120 1122 1123 1121
998 3 2 1 10 1121 1123 317 318
999 3 2 1 10 308 307 1124 1122
1000 3 2 1 10 1122 1124 1125 1123
1001 3 2 1 10 1123 1125 316 317
1002 3 2 1 10 307 306 1126 1124
1003 3 2 1 10 1124 1126 1127 1125
1004 3 2 1 10 1125 1127 315 316
1005 3 2 1 10 306 305 1128 1126
1006 3 2 1 10 1126 1128 1129 1127
1007 3 2 1 10 1127 1129 314 315
1008 3 2 1 10 305 304 1130 1128
1009 3 2 1 10 1128 1130 1131 1129
1010 3 2 1 10 1129 1131 313 314
1011 3 2 1 10 304 303 1132 1130
1012 3 2 1 10 1130 1132 1133 1131
1013 3 2 1 10 1131 1133 312 313
1014 3 2 1 10 303 302 1134 1132
1015 3 2 1 10 1132 1134 1135 1133
1016 3 2 1 10 1133 1135 311 312
1017 3 2 1 10 302 301 1136 1134
1018 3 2 1 10 1134 1136 1137 1135
1019 3 2 1 10 1135 1137 310 311
1020 3 2 1 10 301 10 123 1136
1021 3 2 1 10 1136 123 124 1137
1022 3 2 1 10 1137 124 11 310
1023 3 2 1 11 14 318 1138 137
1024 3 2 1 11 137 1138 1139 136
1025 3 2 1 11 136 1139 135 13
1026 3 2 1 11 318 317 1140 1138
1027 3 2 1 11 1138 1140 1141 1139
1028 3 2 1 11 1139 1141 134 135
1029 3 2 1 11 317 316 1142 1140
1030 3 2 1 11 1140 1142 1143 1141
1031 3 2 1 11 1141 1143 133 134
1032 3 2 1 11 316 315 1144 1142
1033 3 2 1 11 1142 1144 1145 1143
1034 3 2 1 11 1143 1145 132 133
1035 3 2 1 11 315 314 1146 1144
1036 3 2 1 11 1144 1146 1147 1145
1037 3 2 1 11 1145 1147 131 132
1038 3 2 1 11 314 313 1148 1146
1039 3 2 1 11 1146 1148 1149 1147
1040 3 2 1 11 1147 1149 130 131
1041 3 2 1 11 313 312 1150 1148
1042 3 2 1 11 1148 1150 1151 1149
1043 3 2 1 11 1149 1151 129 130
1044 3 2 1 11 312 311 1152 1150
1045 3 2 1 11 1150 1152 1153 1151
1046 3 2 1 11 1151 1153 128 129
1047 3 2 1 11 311 310 1154 1152
1048 3 2 1 11 1152 1154 1155 1153
1049 3 2 1 11 1153 1155 127 128
1050 3 2 1 11 310 11 125 1154
1051 3 2 1 11 1154 125 126 1155
1052 3 2 1 11 1155 126 12 127
$EndElements
